<svg width="15" height="15" viewBox="0 0 15 15" fill="none" xmlns="http://www.w3.org/2000/svg">
<path d="M2.76786 6.31547L6.70536 2.37797C6.746 2.33729 6.79425 2.30502 6.84736 2.28301C6.90047 2.26099 6.9574 2.24966 7.01489 2.24966C7.07239 2.24966 7.12932 2.26099 7.18243 2.28301C7.23554 2.30502 7.28379 2.33729 7.32443 2.37797L11.2619 6.31547C11.344 6.39756 11.3901 6.5089 11.3901 6.625C11.3901 6.7411 11.344 6.85244 11.2619 6.93453C11.1798 7.01662 11.0685 7.06274 10.9524 7.06274C10.8363 7.06274 10.725 7.01662 10.6429 6.93453L7.45239 3.74352L7.45239 12.3125C7.45239 12.4285 7.4063 12.5398 7.32425 12.6219C7.24221 12.7039 7.13093 12.75 7.01489 12.75C6.89886 12.75 6.78758 12.7039 6.70553 12.6219C6.62349 12.5398 6.57739 12.4285 6.57739 12.3125L6.57739 3.74352L3.38693 6.93453C3.30483 7.01662 3.19349 7.06274 3.07739 7.06274C2.9613 7.06274 2.84996 7.01662 2.76786 6.93453C2.68577 6.85244 2.63965 6.7411 2.63965 6.625C2.63965 6.5089 2.68577 6.39756 2.76786 6.31547Z" fill="#1D874F"/>
</svg>
