<svg width="15" height="14" viewBox="0 0 15 14" fill="none" xmlns="http://www.w3.org/2000/svg">
<path d="M3.63737 8.18453L7.57487 12.122C7.6155 12.1627 7.66375 12.195 7.71687 12.217C7.76998 12.239 7.82691 12.2503 7.8844 12.2503C7.9419 12.2503 7.99883 12.239 8.05194 12.217C8.10505 12.195 8.1533 12.1627 8.19393 12.122L12.1314 8.18453C12.2135 8.10244 12.2596 7.9911 12.2596 7.875C12.2596 7.7589 12.2135 7.64756 12.1314 7.56547C12.0493 7.48338 11.938 7.43726 11.8219 7.43726C11.7058 7.43726 11.5945 7.48338 11.5124 7.56547L8.3219 10.7565L8.3219 2.1875C8.3219 2.07147 8.27581 1.96019 8.19376 1.87814C8.11171 1.79609 8.00043 1.75 7.8844 1.75C7.76837 1.75 7.65709 1.79609 7.57504 1.87814C7.49299 1.96019 7.4469 2.07147 7.4469 2.1875L7.4469 10.7565L4.25643 7.56547C4.17434 7.48338 4.063 7.43726 3.9469 7.43726C3.8308 7.43726 3.71946 7.48338 3.63737 7.56547C3.55528 7.64756 3.50916 7.7589 3.50916 7.875C3.50916 7.9911 3.55528 8.10244 3.63737 8.18453Z" fill="#F31D1D"/>
</svg>
