<svg width="21" height="20" viewBox="0 0 21 20" fill="none" xmlns="http://www.w3.org/2000/svg">
<g clip-path="url(#clip0_21_10013)">
<path d="M7.1344 3.75C5.4768 3.75 3.88708 4.40848 2.71498 5.58058C1.54288 6.75269 0.884399 8.3424 0.884399 10C0.884399 11.6576 1.54288 13.2473 2.71498 14.4194C3.88708 15.5915 5.4768 16.25 7.1344 16.25H14.6344C16.292 16.25 17.8817 15.5915 19.0538 14.4194C20.2259 13.2473 20.8844 11.6576 20.8844 10C20.8844 8.3424 20.2259 6.75269 19.0538 5.58058C17.8817 4.40848 16.292 3.75 14.6344 3.75H7.1344ZM14.6344 15C13.3083 15 12.0365 14.4732 11.0989 13.5355C10.1612 12.5979 9.6344 11.3261 9.6344 10C9.6344 8.67392 10.1612 7.40215 11.0989 6.46447C12.0365 5.52678 13.3083 5 14.6344 5C15.9605 5 17.2323 5.52678 18.1699 6.46447C19.1076 7.40215 19.6344 8.67392 19.6344 10C19.6344 11.3261 19.1076 12.5979 18.1699 13.5355C17.2323 14.4732 15.9605 15 14.6344 15Z" fill="#027056"/>
</g>
<defs>
<clipPath id="clip0_21_10013">
<rect width="20" height="20" fill="white" transform="translate(0.884399)"/>
</clipPath>
</defs>
</svg>
