<svg width="21" height="20" viewBox="0 0 21 20" fill="none" xmlns="http://www.w3.org/2000/svg">
<path d="M17.1344 2.5H15.2594V1.875C15.2594 1.70924 15.1936 1.55027 15.0763 1.43306C14.9591 1.31585 14.8002 1.25 14.6344 1.25C14.4686 1.25 14.3097 1.31585 14.1925 1.43306C14.0752 1.55027 14.0094 1.70924 14.0094 1.875V2.5H7.7594V1.875C7.7594 1.70924 7.69355 1.55027 7.57634 1.43306C7.45913 1.31585 7.30016 1.25 7.1344 1.25C6.96864 1.25 6.80967 1.31585 6.69246 1.43306C6.57525 1.55027 6.5094 1.70924 6.5094 1.875V2.5H4.6344C4.30288 2.5 3.98494 2.6317 3.75052 2.86612C3.5161 3.10054 3.3844 3.41848 3.3844 3.75V16.25C3.3844 16.5815 3.5161 16.8995 3.75052 17.1339C3.98494 17.3683 4.30288 17.5 4.6344 17.5H17.1344C17.4659 17.5 17.7839 17.3683 18.0183 17.1339C18.2527 16.8995 18.3844 16.5815 18.3844 16.25V3.75C18.3844 3.41848 18.2527 3.10054 18.0183 2.86612C17.7839 2.6317 17.4659 2.5 17.1344 2.5ZM6.5094 3.75V4.375C6.5094 4.54076 6.57525 4.69973 6.69246 4.81694C6.80967 4.93415 6.96864 5 7.1344 5C7.30016 5 7.45913 4.93415 7.57634 4.81694C7.69355 4.69973 7.7594 4.54076 7.7594 4.375V3.75H14.0094V4.375C14.0094 4.54076 14.0752 4.69973 14.1925 4.81694C14.3097 4.93415 14.4686 5 14.6344 5C14.8002 5 14.9591 4.93415 15.0763 4.81694C15.1936 4.69973 15.2594 4.54076 15.2594 4.375V3.75H17.1344V6.25H4.6344V3.75H6.5094ZM17.1344 16.25H4.6344V7.5H17.1344V16.25ZM11.8219 10.3125C11.8219 10.4979 11.7669 10.6792 11.6639 10.8333C11.5609 10.9875 11.4145 11.1077 11.2432 11.1786C11.0719 11.2496 10.8834 11.2682 10.7015 11.232C10.5196 11.1958 10.3526 11.1065 10.2215 10.9754C10.0904 10.8443 10.0011 10.6773 9.96491 10.4954C9.92874 10.3135 9.94731 10.125 10.0183 9.95373C10.0892 9.78243 10.2094 9.63601 10.3636 9.533C10.5177 9.42998 10.699 9.375 10.8844 9.375C11.133 9.375 11.3715 9.47377 11.5473 9.64959C11.7231 9.8254 11.8219 10.0639 11.8219 10.3125ZM15.2594 10.3125C15.2594 10.4979 15.2044 10.6792 15.1014 10.8333C14.9984 10.9875 14.852 11.1077 14.6807 11.1786C14.5094 11.2496 14.3209 11.2682 14.139 11.232C13.9571 11.1958 13.7901 11.1065 13.659 10.9754C13.5279 10.8443 13.4386 10.6773 13.4024 10.4954C13.3662 10.3135 13.3848 10.125 13.4558 9.95373C13.5267 9.78243 13.6469 9.63601 13.8011 9.533C13.9552 9.42998 14.1365 9.375 14.3219 9.375C14.5705 9.375 14.809 9.47377 14.9848 9.64959C15.1606 9.8254 15.2594 10.0639 15.2594 10.3125ZM8.3844 13.4375C8.3844 13.6229 8.32942 13.8042 8.2264 13.9583C8.12339 14.1125 7.97697 14.2327 7.80567 14.3036C7.63436 14.3746 7.44586 14.3932 7.264 14.357C7.08214 14.3208 6.9151 14.2315 6.78399 14.1004C6.65287 13.9693 6.56359 13.8023 6.52741 13.6204C6.49124 13.4385 6.50981 13.25 6.58076 13.0787C6.65172 12.9074 6.77188 12.761 6.92605 12.658C7.08022 12.555 7.26148 12.5 7.4469 12.5C7.69554 12.5 7.934 12.5988 8.10981 12.7746C8.28563 12.9504 8.3844 13.1889 8.3844 13.4375ZM11.8219 13.4375C11.8219 13.6229 11.7669 13.8042 11.6639 13.9583C11.5609 14.1125 11.4145 14.2327 11.2432 14.3036C11.0719 14.3746 10.8834 14.3932 10.7015 14.357C10.5196 14.3208 10.3526 14.2315 10.2215 14.1004C10.0904 13.9693 10.0011 13.8023 9.96491 13.6204C9.92874 13.4385 9.94731 13.25 10.0183 13.0787C10.0892 12.9074 10.2094 12.761 10.3636 12.658C10.5177 12.555 10.699 12.5 10.8844 12.5C11.133 12.5 11.3715 12.5988 11.5473 12.7746C11.7231 12.9504 11.8219 13.1889 11.8219 13.4375ZM15.2594 13.4375C15.2594 13.6229 15.2044 13.8042 15.1014 13.9583C14.9984 14.1125 14.852 14.2327 14.6807 14.3036C14.5094 14.3746 14.3209 14.3932 14.139 14.357C13.9571 14.3208 13.7901 14.2315 13.659 14.1004C13.5279 13.9693 13.4386 13.8023 13.4024 13.6204C13.3662 13.4385 13.3848 13.25 13.4558 13.0787C13.5267 12.9074 13.6469 12.761 13.8011 12.658C13.9552 12.555 14.1365 12.5 14.3219 12.5C14.5705 12.5 14.809 12.5988 14.9848 12.7746C15.1606 12.9504 15.2594 13.1889 15.2594 13.4375Z" fill="black"/>
</svg>
