<svg width="17" height="16" viewBox="0 0 17 16" fill="none" xmlns="http://www.w3.org/2000/svg">
<path d="M11.7365 10.6466C11.783 10.6931 11.8198 10.7482 11.845 10.8089C11.8702 10.8696 11.8831 10.9347 11.8831 11.0004C11.8831 11.0661 11.8702 11.1312 11.845 11.1919C11.8198 11.2526 11.783 11.3077 11.7365 11.3541L8.73647 14.3541C8.69004 14.4006 8.63489 14.4375 8.57419 14.4627C8.5135 14.4878 8.44843 14.5008 8.38272 14.5008C8.31702 14.5008 8.25195 14.4878 8.19125 14.4627C8.13056 14.4375 8.07541 14.4006 8.02897 14.3541L5.02897 11.3541C4.93515 11.2603 4.88245 11.1331 4.88245 11.0004C4.88245 10.8677 4.93515 10.7405 5.02897 10.6466C5.12279 10.5528 5.25004 10.5001 5.38272 10.5001C5.51541 10.5001 5.64265 10.5528 5.73647 10.6466L8.38272 13.2935L11.029 10.6466C11.0754 10.6002 11.1306 10.5633 11.1913 10.5381C11.252 10.513 11.317 10.5 11.3827 10.5C11.4484 10.5 11.5135 10.513 11.5742 10.5381C11.6349 10.5633 11.69 10.6002 11.7365 10.6466ZM5.73647 5.35414L8.38272 2.70727L11.029 5.35414C11.1228 5.44796 11.25 5.50067 11.3827 5.50067C11.5154 5.50067 11.6427 5.44796 11.7365 5.35414C11.8303 5.26032 11.883 5.13308 11.883 5.00039C11.883 4.86771 11.8303 4.74046 11.7365 4.64664L8.73647 1.64664C8.69004 1.60016 8.63489 1.56328 8.57419 1.53811C8.5135 1.51295 8.44843 1.5 8.38272 1.5C8.31702 1.5 8.25195 1.51295 8.19125 1.53811C8.13056 1.56328 8.07541 1.60016 8.02897 1.64664L5.02897 4.64664C4.93515 4.74046 4.88245 4.86771 4.88245 5.00039C4.88245 5.13308 4.93515 5.26032 5.02897 5.35414C5.12279 5.44796 5.25004 5.50067 5.38272 5.50067C5.51541 5.50067 5.64265 5.44796 5.73647 5.35414Z" fill="#031B15"/>
</svg>
