<svg width="21" height="20" viewBox="0 0 21 20" fill="none" xmlns="http://www.w3.org/2000/svg">
<path d="M16.5746 7.31723L10.3246 13.5672C10.2666 13.6253 10.1976 13.6714 10.1218 13.7029C10.0459 13.7343 9.96456 13.7505 9.88243 13.7505C9.80029 13.7505 9.71896 13.7343 9.64309 13.7029C9.56722 13.6714 9.49829 13.6253 9.44024 13.5672L3.19024 7.31723C3.07296 7.19995 3.00708 7.04089 3.00708 6.87504C3.00708 6.70919 3.07296 6.55013 3.19024 6.43285C3.30752 6.31558 3.46658 6.24969 3.63243 6.24969C3.79828 6.24969 3.95734 6.31558 4.07462 6.43285L9.88243 12.2414L15.6902 6.43285C15.7483 6.37479 15.8172 6.32872 15.8931 6.2973C15.969 6.26587 16.0503 6.24969 16.1324 6.24969C16.2146 6.24969 16.2959 6.26587 16.3717 6.2973C16.4476 6.32872 16.5165 6.37479 16.5746 6.43285C16.6327 6.49092 16.6787 6.55986 16.7102 6.63573C16.7416 6.7116 16.7578 6.79292 16.7578 6.87504C16.7578 6.95716 16.7416 7.03848 16.7102 7.11435C16.6787 7.19022 16.6327 7.25916 16.5746 7.31723Z" fill="#FAFAFA"/>
</svg>
