<svg width="21" height="20" viewBox="0 0 21 20" fill="none" xmlns="http://www.w3.org/2000/svg">
<path d="M16.7574 2.5H6.75745C6.42593 2.5 6.10798 2.6317 5.87356 2.86612C5.63914 3.10054 5.50745 3.41848 5.50745 3.75V5H4.25745C3.92593 5 3.60798 5.1317 3.37356 5.36612C3.13914 5.60054 3.00745 5.91848 3.00745 6.25V16.25C3.00745 16.5815 3.13914 16.8995 3.37356 17.1339C3.60798 17.3683 3.92593 17.5 4.25745 17.5H14.2574C14.589 17.5 14.9069 17.3683 15.1413 17.1339C15.3757 16.8995 15.5074 16.5815 15.5074 16.25V15H16.7574C17.089 15 17.4069 14.8683 17.6413 14.6339C17.8757 14.3995 18.0074 14.0815 18.0074 13.75V3.75C18.0074 3.41848 17.8757 3.10054 17.6413 2.86612C17.4069 2.6317 17.089 2.5 16.7574 2.5ZM6.75745 3.75H16.7574V9.17031L15.4528 7.86562C15.2184 7.63138 14.9005 7.4998 14.5692 7.4998C14.2378 7.4998 13.92 7.63138 13.6856 7.86562L7.80198 13.75H6.75745V3.75ZM14.2574 16.25H4.25745V6.25H5.50745V13.75C5.50745 14.0815 5.63914 14.3995 5.87356 14.6339C6.10798 14.8683 6.42593 15 6.75745 15H14.2574V16.25ZM16.7574 13.75H9.56995L14.5699 8.75L16.7574 10.9375V13.75ZM9.88245 8.75C10.2533 8.75 10.6158 8.64003 10.9241 8.43401C11.2325 8.22798 11.4728 7.93514 11.6147 7.59253C11.7566 7.24992 11.7938 6.87292 11.7214 6.50921C11.6491 6.14549 11.4705 5.8114 11.2083 5.54917C10.946 5.28695 10.612 5.10837 10.2482 5.03603C9.88453 4.96368 9.50753 5.00081 9.16492 5.14273C8.8223 5.28464 8.52947 5.52496 8.32344 5.83331C8.11741 6.14165 8.00745 6.50416 8.00745 6.875C8.00745 7.37228 8.20499 7.84919 8.55662 8.20083C8.90825 8.55246 9.38517 8.75 9.88245 8.75ZM9.88245 6.25C10.0061 6.25 10.1269 6.28666 10.2297 6.35533C10.3325 6.42401 10.4126 6.52162 10.4599 6.63582C10.5072 6.75003 10.5196 6.87569 10.4954 6.99693C10.4713 7.11817 10.4118 7.22953 10.3244 7.31694C10.237 7.40435 10.1256 7.46388 10.0044 7.48799C9.88314 7.51211 9.75747 7.49973 9.64327 7.45243C9.52907 7.40512 9.43145 7.32501 9.36278 7.22223C9.2941 7.11945 9.25745 6.99861 9.25745 6.875C9.25745 6.70924 9.32329 6.55027 9.4405 6.43306C9.55771 6.31585 9.71669 6.25 9.88245 6.25Z" fill="#7E8986"/>
</svg>
