<svg width="21" height="20" viewBox="0 0 21 20" fill="none" xmlns="http://www.w3.org/2000/svg">
<path d="M10.5074 6.25003C9.76576 6.25003 9.04074 6.46996 8.42405 6.88202C7.80737 7.29407 7.32672 7.87974 7.04289 8.56496C6.75907 9.25019 6.6848 10.0042 6.8295 10.7316C6.97419 11.459 7.33135 12.1272 7.85579 12.6517C8.38024 13.1761 9.04842 13.5333 9.77585 13.678C10.5033 13.8227 11.2573 13.7484 11.9425 13.4646C12.6277 13.1807 13.2134 12.7001 13.6255 12.0834C14.0375 11.4667 14.2574 10.7417 14.2574 10C14.2564 9.00578 13.861 8.05256 13.158 7.34952C12.4549 6.64648 11.5017 6.25106 10.5074 6.25003ZM10.5074 12.5C10.013 12.5 9.52964 12.3534 9.11852 12.0787C8.70739 11.804 8.38696 11.4135 8.19774 10.9567C8.00852 10.4999 7.95902 9.99725 8.05548 9.5123C8.15194 9.02735 8.39004 8.58189 8.73968 8.23226C9.08931 7.88263 9.53476 7.64453 10.0197 7.54806C10.5047 7.4516 11.0073 7.50111 11.4642 7.69033C11.921 7.87955 12.3114 8.19998 12.5861 8.6111C12.8608 9.02222 13.0074 9.50557 13.0074 10C13.0074 10.6631 12.7441 11.299 12.2752 11.7678C11.8064 12.2366 11.1705 12.5 10.5074 12.5ZM19.0965 8.37581C19.0791 8.2878 19.0429 8.20456 18.9905 8.13177C18.9381 8.05897 18.8706 7.99832 18.7926 7.95393L16.4621 6.62581L16.4528 3.99924C16.4525 3.90879 16.4326 3.81947 16.3944 3.73746C16.3562 3.65545 16.3007 3.5827 16.2317 3.52424C15.3863 2.80916 14.4128 2.26117 13.3629 1.9094C13.2802 1.88142 13.1926 1.87106 13.1057 1.879C13.0188 1.88694 12.9345 1.913 12.8582 1.95549L10.5074 3.26956L8.15432 1.95315C8.07803 1.91041 7.99362 1.88416 7.90656 1.87608C7.81949 1.86801 7.73169 1.87829 7.64885 1.90628C6.59975 2.26062 5.62736 2.8107 4.78322 3.52737C4.71429 3.58574 4.65883 3.65836 4.62066 3.74023C4.5825 3.8221 4.56253 3.91126 4.56213 4.00159L4.55041 6.63049L2.21994 7.95862C2.14197 8.00301 2.07448 8.06366 2.02204 8.13646C1.9696 8.20925 1.93344 8.29248 1.91604 8.38049C1.70275 9.45228 1.70275 10.5556 1.91604 11.6274C1.93344 11.7154 1.9696 11.7986 2.02204 11.8714C2.07448 11.9442 2.14197 12.0049 2.21994 12.0492L4.55041 13.3774L4.55979 16.0039C4.56007 16.0944 4.57998 16.1837 4.61816 16.2657C4.65633 16.3477 4.71185 16.4205 4.78088 16.4789C5.62625 17.194 6.59975 17.742 7.64963 18.0938C7.73231 18.1218 7.81993 18.1321 7.90686 18.1242C7.99378 18.1162 8.07808 18.0902 8.15432 18.0477L10.5074 16.7305L12.8606 18.0469C12.9537 18.0988 13.0587 18.1257 13.1653 18.125C13.2335 18.125 13.3013 18.1139 13.366 18.0922C14.415 17.7383 15.3874 17.1888 16.2317 16.4727C16.3006 16.4143 16.3561 16.3417 16.3942 16.2598C16.4324 16.178 16.4524 16.0888 16.4528 15.9985L16.4645 13.3696L18.7949 12.0414C18.8729 11.997 18.9404 11.9364 18.9928 11.8636C19.0453 11.7908 19.0814 11.7076 19.0988 11.6196C19.3109 10.5486 19.3101 9.44643 19.0965 8.37581ZM17.9246 11.1032L15.6926 12.3727C15.5948 12.4283 15.5138 12.5093 15.4582 12.6071C15.4129 12.6852 15.3653 12.768 15.3168 12.8461C15.2548 12.9446 15.2218 13.0586 15.2215 13.175L15.2098 15.6946C14.6098 16.1657 13.9415 16.5424 13.2278 16.8117L10.9762 15.5571C10.8827 15.5053 10.7775 15.4784 10.6707 15.4789H10.6559C10.5613 15.4789 10.466 15.4789 10.3715 15.4789C10.2597 15.4761 10.1492 15.5031 10.0512 15.5571L7.79807 16.8149C7.08284 16.5476 6.41262 16.1727 5.81057 15.7032L5.80197 13.1875C5.80159 13.0709 5.76857 12.9567 5.70666 12.8578C5.65822 12.7797 5.61057 12.7016 5.56604 12.6188C5.51082 12.5195 5.42985 12.4369 5.33166 12.3797L3.09729 11.1071C2.98166 10.3757 2.98166 9.63064 3.09729 8.89925L5.32541 7.62737C5.42321 7.57176 5.50418 7.49079 5.55979 7.39299C5.6051 7.31487 5.65276 7.23206 5.70119 7.15393C5.7632 7.05541 5.79622 6.94143 5.7965 6.82503L5.80822 4.30549C6.40817 3.83436 7.07655 3.45762 7.79025 3.18831L10.0387 4.44299C10.1365 4.49724 10.2472 4.52422 10.359 4.52112C10.4535 4.52112 10.5488 4.52112 10.6434 4.52112C10.7552 4.52391 10.8657 4.49695 10.9637 4.44299L13.2168 3.18518C13.932 3.45243 14.6023 3.82732 15.2043 4.2969L15.2129 6.81253C15.2133 6.92916 15.2463 7.04336 15.3082 7.14221C15.3567 7.22034 15.4043 7.29846 15.4488 7.38128C15.5041 7.48058 15.585 7.56317 15.6832 7.62034L17.9176 8.89299C18.0348 9.62495 18.0361 10.3708 17.9215 11.1032H17.9246Z" fill="#7E8986"/>
</svg>
